<?xml version="1.0" ?><svg id="Layer_1" style="enable-background:new 0 0 256 256;" version="1.1" viewBox="0 0 256 256" xml:space="preserve" xmlns="http://www.w3.org/2000/svg" xmlns:xlink="http://www.w3.org/1999/xlink"><g><path d="M245.5,36.3c-4.5-10.2-12.7-18.1-23.1-22.2c-10.4-4.1-21.8-3.8-32,0.7c-4.8,2.1-9.1,5.1-12.8,8.8c-1.9,1.9-1.9,5.1,0,7   c1.9,1.9,5.1,1.9,7,0c2.8-2.8,6.1-5.1,9.8-6.7c7.8-3.4,16.5-3.6,24.5-0.5c8,3.1,14.2,9.1,17.7,16.9c7.1,16.2-0.3,35.1-16.4,42.2   c-3.7,1.6-7.6,2.5-11.6,2.7c-2.7,0.1-4.8,2.4-4.7,5.1c0.1,2.7,2.3,4.8,4.9,4.8c0.1,0,0.1,0,0.2,0c5.2-0.2,10.3-1.4,15.2-3.5   C245.1,82.2,254.8,57.4,245.5,36.3z"/><path d="M142.8,113.7c4.9,1.9,10.1,2.9,15.2,2.9c5.7,0,11.4-1.2,16.8-3.6c10.2-4.5,18.1-12.7,22.2-23.1c4.1-10.4,3.8-21.8-0.7-32   c-4.5-10.2-12.7-18.1-23.1-22.2c-10.4-4.1-21.8-3.8-32,0.7h0c-10.2,4.5-18.1,12.7-22.2,23.1c-4.1,10.4-3.8,21.8,0.7,32   C124.2,101.8,132.4,109.6,142.8,113.7z M128.2,63.1c3.1-8,9.1-14.2,16.9-17.7h0c4.1-1.8,8.5-2.7,12.8-2.7c3.9,0,7.9,0.7,11.6,2.2   c8,3.1,14.2,9.1,17.7,16.9c3.4,7.8,3.6,16.5,0.5,24.5c-3.1,8-9.1,14.2-16.9,17.7c-7.8,3.4-16.5,3.6-24.5,0.5   c-8-3.1-14.2-9.1-17.7-16.9C125.3,79.7,125.1,71.1,128.2,63.1z"/><path d="M83.7,85.5c0.6,0,1.2-0.1,1.7-0.3c5.8-2.2,11.8-3.8,18-4.7c2.7-0.4,4.5-2.9,4.1-5.6c-0.4-2.7-2.9-4.5-5.6-4.1   c-6.8,1-13.5,2.8-20,5.2c-2.5,1-3.8,3.8-2.9,6.3C79.8,84.2,81.7,85.5,83.7,85.5z"/><path d="M211.7,132.5c-2-7.6-5.4-15-10-21.9c-1.5-2.3-4.6-2.9-6.8-1.4c-2.3,1.5-2.9,4.6-1.4,6.8c4,6,6.9,12.4,8.7,19   c0.5,1.8,0.9,3.6,1.2,5.4c3.7,20.6-2.9,42.2-17.1,56.5c-1.7,1.8-3,4-3.5,6.2l-9.2,31.8H153l-2.4-9.4c-0.6-2.2-2.5-3.7-4.8-3.7   l-52.7-0.2c0,0,0,0,0,0c-2.2,0-4.2,1.5-4.8,3.7l-2.5,9.6H65.3l-5.9-20.8c-1.2-4.1-4.3-7.8-8.1-9.4c-12.5-5.7-23.6-12.3-33.2-19.5   c-0.8-0.6-1.3-1.6-1.3-2.7l0.1-38.9l5.3-0.1c1.5,0,2.9-0.8,3.9-2l21.1-28c0.1-0.2,0.3-0.4,0.4-0.6c1.3-2.3,0.4-4.5-0.6-6.6   c-0.2-0.6-0.5-1.2-0.7-1.8l-0.4-0.9c-0.8-1.9-1.7-3.8-2.6-5.6c-1.6-3.4-3.4-6.8-5.2-10.1c-0.2-0.4-0.4-0.7-0.6-1.1c0.3,0,0.6,0,1,0   c0.1,0,0.2,0,0.4,0c5,0,9.6,0.7,13.8,2.2c1.2,0.4,3.7,1.6,4.3,1.9c0,0,0.1,0,0.1,0.1c0.9,0.5,6.2,3.6,7.4,4.5   c5.3,4,9.8,9.3,12.8,15.4c1.2,2.4,4.2,3.4,6.6,2.2c2.4-1.2,3.4-4.2,2.2-6.6c-3.7-7.4-9.1-13.9-15.7-18.9c-1.7-1.3-6.9-4.3-8.3-5.1   c-1.3-0.9-3.2-1.8-6.2-2.8C50.8,77.9,45.3,77,39.3,77c-1.2,0-2.4,0-3.4,0.1L34,77.2c-0.3,0-0.3,0-0.6,0.1c0,0,0,0,0,0   c-0.2,0-0.4,0.1-0.6,0.1c-2.6,0.6-4.8,2.4-5.9,5c-1,2.6,0.1,5.1,0.5,6.2c0.3,1,0.8,1.9,1.5,3.1c0,0.1,0.2,0.3,0.3,0.4l0.3,0.5   c1.7,3.2,3.4,6.4,5,9.7c0.8,1.8,1.7,3.5,2.4,5.2l0.4,1c0.2,0.4,0.4,0.9,0.5,1.3l-18,23.9l-7.8,0.1c-2.7,0-4.8,2.2-4.8,4.9L7,182.6   c0,4.2,1.9,8.1,5.2,10.6c10.1,7.7,21.9,14.6,35.1,20.7c1.2,0.5,2.3,1.8,2.6,3.1l7,24.3c0.6,2.1,2.5,3.6,4.7,3.6h28.1   c2.2,0,4.2-1.5,4.8-3.7l2.5-9.6l45,0.2l2.4,9.4c0.6,2.2,2.5,3.7,4.8,3.7h28.2c2.2,0,4.1-1.5,4.7-3.6l10.3-35.6   c0.2-0.6,0.5-1.3,1-1.8c16.4-16.4,24-41.4,19.8-65.1C212.8,136.7,212.3,134.6,211.7,132.5z"/><path d="M64.1,136.5c0,4.3-3.6,7.9-7.9,7.9s-7.9-3.6-7.9-7.9c0-4.3,3.6-7.9,7.9-7.9S64.1,132.3,64.1,136.5z"/></g></svg>