<?xml version="1.0" ?><svg id="Layer_1" style="enable-background:new 0 0 387.012 273.602;" version="1.1" viewBox="0 0 387.012 273.602" xml:space="preserve" xmlns="http://www.w3.org/2000/svg" xmlns:xlink="http://www.w3.org/1999/xlink"><g><path d="M91.992,85.986c-0.197-0.015-0.396-0.03-0.598-0.03H54.043c-0.004-0.001-0.008-0.002-0.012-0.002v-0.002   c-0.301-0.037-0.78-0.08-1.414-0.08c-2.842-0.078-9.386,1.105-15.198,7.188c-5.093,5.273-9.518,13.595-12.306,26.893   c-0.405,1.937-0.777,3.976-1.11,6.13c-0.001,0.003-0.001,0.006-0.001,0.009c-1.221,7.916-1.934,17.387-1.934,28.804   c0,5.855,0.188,12.224,0.594,19.159c0.25,4.25,3.775,7.531,7.98,7.531c0.158,0,0.316-0.004,0.475-0.014   c4.41-0.258,7.775-4.045,7.517-8.455c-0.391-6.651-0.568-12.709-0.566-18.222c-0.002-10.741,0.674-19.412,1.743-26.347   c0.001-0.008,0.003-0.017,0.005-0.025c0.314-2.043,0.664-3.919,1.039-5.664c1.217-5.677,2.703-9.834,4.176-12.85v31.111   l-4.723,3.199c-0.059,1.217-0.104,2.459-0.141,3.719l4.441-3.008l17.943,26.494l-33.531,22.711l-17.945-26.494l9.08-6.15   c-0.027-1.207-0.049-2.402-0.061-3.582l-13.188,8.931l21.31,31.463l16.813-11.388v73.06c0,6.83,5.537,12.363,12.363,12.363   c6.828,0,12.365-5.533,12.365-12.363v-90.271h4.635v90.271c0,6.83,5.537,12.363,12.363,12.363c6.828,0,12.365-5.533,12.365-12.363   V101.023c3.374-0.569,8.424-1.441,14.559-2.561v130.548h35v38.101c-0.784-3.492-3.356-9.625-11.599-15.332l-1.14,1.645   c8.74,6.087,10.57,12.39,10.961,15.095h-1.6c-0.678-1.74-3.697-7.954-12.033-8.747l-0.186,1.993c4.219,0.396,6.78,2.343,8.37,4.21   c0.79,0.934,1.323,1.85,1.651,2.523c0.004,0.008,0.006,0.013,0.01,0.02h-6.938v5.083h41.332v-5.083h-7.554   c0.895-1.481,2.605-3.49,5.886-5.385l-0.995-1.731c-4.325,2.477-6.29,5.29-7.162,7.116h-1.247c0.336-3.125,1.802-9.607,8.07-15.171   l-1.328-1.494c-4.124,3.668-6.324,7.703-7.5,11.079v-33.922h124v36.326c-1.205-3.582-4.115-8.723-11.1-13.558l-1.14,1.645   c8.74,6.087,10.571,12.39,10.964,15.095h-1.601c-0.679-1.74-3.698-7.954-12.035-8.747l-0.183,1.993   c4.217,0.396,6.779,2.343,8.369,4.21c0.79,0.934,1.32,1.85,1.652,2.523c0.004,0.008,0.006,0.013,0.01,0.02h-6.939v5.083h41.332   v-5.083h-7.554c0.895-1.481,2.605-3.49,5.886-5.385l-0.995-1.731c-4.325,2.477-6.29,5.29-7.162,7.116h-1.247   c0.336-3.125,1.802-9.607,8.07-15.171l-1.328-1.494c-4.799,4.268-6.995,9.032-8,12.676v-35.519h35v-144H168.979   c-0.293,2.35-1.403,4.445-3.039,5.999h169.742v132.001h-216V91.01h32.505c-1.919-1.823-3.122-4.392-3.122-7.241   c0,0,0.769-0.321,2-0.793v0.794c0,4.418,3.582,8,8,8c4.416,0,7.998-3.582,7.998-8v-2.834c0-0.632-0.082-1.243-0.22-1.833   c0.003,0.001,0.005,0.001,0.009,0.001c-0.002-0.002-0.002-0.005-0.002-0.007c-0.021-0.088-0.051-0.171-0.074-0.258   c-0.037-0.135-0.074-0.271-0.117-0.404c-0.043-0.128-0.091-0.252-0.139-0.377c-0.045-0.117-0.09-0.233-0.141-0.347   c-0.061-0.138-0.127-0.273-0.195-0.406c-0.047-0.093-0.094-0.186-0.146-0.276c-0.081-0.145-0.167-0.284-0.257-0.422   c-0.049-0.076-0.096-0.151-0.147-0.225c-0.098-0.141-0.2-0.276-0.306-0.409c-0.055-0.068-0.107-0.136-0.164-0.203   c-0.107-0.127-0.221-0.249-0.336-0.369c-0.064-0.068-0.13-0.136-0.197-0.201c-0.111-0.107-0.226-0.21-0.342-0.311   c-0.082-0.071-0.166-0.141-0.25-0.209c-0.109-0.086-0.22-0.168-0.332-0.248c-0.102-0.073-0.203-0.144-0.309-0.211   c-0.104-0.067-0.209-0.13-0.316-0.192c-0.119-0.069-0.239-0.137-0.362-0.2c-0.102-0.053-0.205-0.101-0.31-0.149   c-0.13-0.06-0.261-0.118-0.395-0.171c-0.108-0.044-0.218-0.082-0.328-0.12c-0.131-0.046-0.263-0.09-0.396-0.129   c-0.125-0.036-0.25-0.066-0.376-0.097c-0.122-0.029-0.245-0.058-0.37-0.082c-0.145-0.027-0.293-0.048-0.439-0.067   c-0.11-0.015-0.221-0.03-0.332-0.04c-0.16-0.014-0.322-0.02-0.485-0.024c-0.075-0.002-0.148-0.011-0.224-0.011   c-0.033,0-0.066,0.004-0.1,0.005c-0.146,0.002-0.295,0.012-0.443,0.022c-0.131,0.009-0.262,0.017-0.391,0.032   c-0.111,0.013-0.221,0.033-0.33,0.05c-0.167,0.026-0.332,0.054-0.496,0.091c-0.025,0.006-0.053,0.008-0.079,0.015   c-15.678,3.703-32.03,6.922-44.435,9.208c-6.203,1.142-11.421,2.053-15.082,2.675C94.178,85.636,92.141,85.963,91.992,85.986z    M68.275,94.14h3.801h3.799l1.9,7.5l-0.289,0.456c-1.565,1.306-3.483,1.96-5.412,1.962c-1.928-0.002-3.842-0.655-5.407-1.958   l-0.292-0.46L68.275,94.14z M72.076,158.64l-9.5-12l5.473-40.321c1.297,0.486,2.661,0.74,4.025,0.739h0.002c0,0,0.004,0,0.006,0   c1.363,0,2.727-0.254,4.021-0.74l5.473,40.322L72.076,158.64z"/><polygon points="149.131,118.725 149.131,139.404 165.494,139.404 165.494,134.312 155.521,134.312 155.521,118.725  "/><path d="M173.859,135.99h7.254l1.035,3.414h6.691l-7.771-20.68H174.1l-7.773,20.68h6.525L173.859,135.99z M177.506,124.085   l2.281,7.434h-4.541L177.506,124.085z"/><polygon points="196.922,128.051 204.666,139.404 210.688,139.404 210.688,118.725 204.666,118.725 204.666,130.165    196.879,118.725 190.912,118.725 190.912,139.404 196.922,139.404  "/><path d="M228.32,138.84c1.025-0.272,1.984-0.821,2.877-1.643c0.893-0.823,1.592-1.844,2.096-3.061   c0.502-1.218,0.754-2.932,0.754-5.142c0-1.41-0.17-2.746-0.508-4.006c-0.338-1.26-0.885-2.366-1.637-3.314   c-0.752-0.951-1.705-1.68-2.855-2.187c-1.152-0.509-2.664-0.763-4.535-0.763h-9.492v20.68h9.492   C225.65,139.404,226.92,139.217,228.32,138.84z M221.408,134.707v-11.298h1.594c1.654,0,2.842,0.403,3.555,1.213   c0.715,0.809,1.072,2.308,1.072,4.498c0,1.655-0.16,2.854-0.478,3.59c-0.32,0.739-0.764,1.256-1.328,1.553   c-0.564,0.296-1.514,0.444-2.848,0.444H221.408z"/><polygon points="253.484,130.955 261.496,130.955 261.496,126.779 253.484,126.779 253.484,123.168 262.865,123.168    262.865,118.725 247.066,118.725 247.066,139.404 253.484,139.404  "/><path d="M270.645,138.642c1.527,0.743,3.457,1.115,5.789,1.115c2.295,0,4.211-0.43,5.75-1.291c1.535-0.86,2.713-2.064,3.525-3.611   c0.813-1.546,1.221-3.527,1.221-5.945c0-3.329-0.932-5.917-2.795-7.765c-1.861-1.848-4.514-2.771-7.955-2.771   c-3.357,0-5.977,0.939-7.857,2.82c-1.879,1.882-2.82,4.51-2.82,7.885c0,2.418,0.477,4.43,1.426,6.038   C267.877,136.724,269.115,137.899,270.645,138.642z M273.063,124.579c0.781-0.912,1.814-1.369,3.103-1.369   c1.344,0,2.41,0.45,3.195,1.348c0.785,0.898,1.178,2.32,1.178,4.268c0,2.314-0.377,3.917-1.129,4.81   c-0.752,0.894-1.814,1.34-3.188,1.34c-1.336,0-2.391-0.455-3.166-1.368c-0.777-0.912-1.164-2.412-1.164-4.499   C271.892,127,272.283,125.491,273.063,124.579z"/><path d="M296.873,131.011h0.563c0.584,0,1.105,0.16,1.568,0.48c0.338,0.244,0.723,0.775,1.156,1.594l3.414,6.319h7.221   l-3.094-5.992c-0.15-0.302-0.449-0.73-0.896-1.285c-0.445-0.555-0.787-0.918-1.021-1.087c-0.348-0.253-0.902-0.508-1.662-0.763   c0.949-0.216,1.697-0.489,2.244-0.817c0.855-0.518,1.527-1.192,2.018-2.024c0.49-0.832,0.734-1.822,0.734-2.97   c0-1.316-0.32-2.433-0.959-3.35c-0.641-0.916-1.483-1.544-2.525-1.883c-1.043-0.339-2.553-0.509-4.529-0.509h-10.648v20.68h6.418   V131.011z M296.873,122.9h2.807c1.166,0,1.961,0.179,2.385,0.536c0.422,0.357,0.635,0.87,0.635,1.538   c0,0.45-0.135,0.851-0.402,1.198c-0.27,0.349-0.613,0.563-1.037,0.648c-0.838,0.188-1.402,0.283-1.693,0.283h-2.693V122.9z"/><path d="M175.855,170.217c-2.473-1.259-6.564-2.505-12.275-3.735c-2.309-0.48-3.771-1-4.387-1.559   c-0.635-0.538-0.951-1.144-0.951-1.817c0-0.923,0.385-1.706,1.154-2.351c0.77-0.645,1.914-0.967,3.434-0.967   c1.846,0,3.293,0.433,4.342,1.298c1.047,0.866,1.734,2.251,2.063,4.154l12.318-0.721c-0.539-4.386-2.227-7.583-5.063-9.593   c-2.838-2.01-6.959-3.015-12.363-3.015c-4.404,0-7.871,0.553-10.4,1.659c-2.529,1.106-4.424,2.625-5.684,4.558   c-1.26,1.933-1.889,3.986-1.889,6.159c0,3.309,1.23,6.03,3.693,8.165c2.441,2.135,6.529,3.847,12.26,5.135   c3.5,0.77,5.732,1.587,6.693,2.452c0.961,0.866,1.443,1.847,1.443,2.943c0,1.153-0.506,2.168-1.516,3.043   c-1.01,0.876-2.447,1.313-4.313,1.313c-2.5,0-4.424-0.855-5.77-2.567c-0.828-1.058-1.375-2.597-1.645-4.615l-12.435,0.778   c0.365,4.27,1.934,7.789,4.703,10.56c2.77,2.77,7.75,4.154,14.945,4.154c4.096,0,7.49-0.592,10.184-1.774   c2.691-1.184,4.789-2.919,6.289-5.208c1.5-2.288,2.25-4.789,2.25-7.501c0-2.308-0.563-4.395-1.688-6.26   C180.125,173.04,178.326,171.477,175.855,170.217z"/><path d="M201.17,152.633l-15.894,42.294h13.344l2.061-6.981h14.838l2.115,6.981h13.686l-15.893-42.294H201.17z M203.517,178.8   l4.621-15.204l4.668,15.204H203.517z"/><polygon points="268.938,184.512 248.541,184.512 248.541,152.633 235.473,152.633 235.473,194.927 268.938,194.927  "/><polygon points="287.949,177.011 308.289,177.011 308.289,168.385 287.949,168.385 287.949,161.663 309.875,161.663    309.875,152.633 274.852,152.633 274.852,194.927 310.51,194.927 310.51,185.349 287.949,185.349  "/><rect height="7" width="34.529" x="352.482" y="210.263"/><rect height="7" width="34.529" y="210.263"/><circle cx="72.078" cy="57.758" r="22.5"/><rect height="19.21" transform="matrix(0.8196 -0.5729 0.5729 0.8196 -84.9493 56.3834)" width="2.001" x="46.063" y="153.487"/><path d="M46.383,175.146l-6.068-8.689c0.049,1.233,0.105,2.478,0.17,3.737l4.258,6.097L46.383,175.146z"/><path d="M221.182,5.432c-0.885,0-1.748,0.09-2.584,0.26c1.191,2.199,1.867,4.716,1.867,7.392c0,4.41-1.843,8.382-4.791,11.212   c1.697-2.492,2.691-5.501,2.691-8.744c0-8.59-6.963-15.553-15.553-15.553c-4.182,0-7.97,1.659-10.766,4.344   c-2.105,2.023-3.635,4.631-4.34,7.564c-0.4-0.054-0.806-0.091-1.221-0.091c-5.045,0-9.133,4.091-9.133,9.136   c0,5.045,4.088,9.134,9.133,9.134c2.479,0,4.723-0.99,6.368-2.592c2.698,2.252,6.169,3.61,9.958,3.61   c3.667,0,7.031-1.276,9.689-3.399c2.287,2.103,5.328,3.399,8.68,3.399c7.09,0,12.838-5.747,12.838-12.837   S228.271,5.432,221.182,5.432z"/><path d="M320.535,56.671c2.379,2.743,5.881,4.485,9.797,4.485c7.168,0,12.977-5.811,12.977-12.978   c0-7.167-5.809-12.978-12.977-12.978c-0.088,0-0.171,0.011-0.258,0.013c0.086,0.816,0.133,1.643,0.133,2.482   C330.207,45.498,326.395,52.406,320.535,56.671z"/><path d="M271.935,61.904c2.416,0,4.608-0.935,6.254-2.454c2.134,1.083,4.54,1.706,7.096,1.706c3.215,0,6.199-0.969,8.689-2.623   c3.228,1.672,6.889,2.623,10.775,2.623c0.334,0,0.666-0.011,0.998-0.025c12.493-0.523,22.463-10.813,22.463-23.435   c0-12.62-9.97-22.909-22.463-23.433c-0.332-0.014-0.664-0.025-0.998-0.025c-9.199,0-17.157,5.298-21.002,13.007   c5.162,0.19,9.69,2.851,12.417,6.854c-2.825-2.712-6.653-4.388-10.88-4.388c-7.418,0-13.621,5.146-15.274,12.06   c0.621-0.132,1.265-0.204,1.925-0.204c5.1,0,9.234,4.134,9.234,9.232c0,0.316-0.017,0.628-0.048,0.936   c-0.469-4.66-4.402-8.296-9.186-8.296c-4.783,0-8.717,3.637-9.186,8.296c-0.031,0.308-0.048,0.62-0.048,0.936   C262.701,57.771,266.836,61.904,271.935,61.904z"/></g></svg>