<?xml version="1.0" ?><svg data-name="Layer 1" id="Layer_1" viewBox="0 0 128 128" xmlns="http://www.w3.org/2000/svg"><defs><style>.cls-1{fill:#7c3c23;}.cls-2{fill:#f66;}.cls-3{fill:none;stroke:#fff;stroke-linecap:square;stroke-width:2px;}.cls-3,.cls-8,.cls-9{stroke-miterlimit:10;}.cls-4{fill:#ff9364;}.cls-5{fill:#ffba7b;}.cls-6{fill:#fff0ca;}.cls-7{fill:#fff7d7;}.cls-8{fill:#ffd297;}.cls-8,.cls-9{stroke:#cc9246;stroke-linecap:round;stroke-width:4px;}.cls-9{fill:#ffc954;}</style></defs><title/><circle class="cls-1" cx="65" cy="68" r="60"/><path class="cls-1" d="M117,17a9.94,9.94,0,0,0-4.29,1A16,16,0,0,0,81,21c0,.09,0,.18,0,.26A8,8,0,1,0,79,37h38a10,10,0,0,0,0-20Z"/><circle class="cls-2" cx="53" cy="53" r="53"/><circle class="cls-3" cx="34" cy="8" r="5"/><circle class="cls-4" cx="53" cy="61.07" r="40.33"/><circle class="cls-5" cx="53" cy="65.67" r="33.41"/><circle class="cls-6" cx="53" cy="67.98" r="27.65"/><path class="cls-1" d="M13,93s14-14,28-7c0,0,36-17,65,0s-37,24-37,24H36Z"/><path class="cls-1" d="M105.08,79.79l-.21-.56-.57-.1a1.18,1.18,0,0,0-1.11.48,3.71,3.71,0,0,1-1.06.82c.55-1,1.08-2.08,1.31-2.55,1.9-3.88,1.78-4.19,1.64-4.59l-.22-.56-.57-.1a1.14,1.14,0,0,0-1.1.48,3.71,3.71,0,0,1-.7.62c.21-.53.4-1,.52-1.35,1.39-3.76,1.21-4.26,1.1-4.56a1,1,0,0,0-.81-.68,1.15,1.15,0,0,0-1.12.47c.09-.91.14-1.76.17-2.18.26-4.35,0-4.63-.71-4.88a1,1,0,0,0-.61,0c-.08-.57-.16-1-.21-1.33a26,26,0,0,0-.73-3.29c.45-2.53,1.3-5.9,2.09-6.7a1,1,0,0,0-1.41-1.41c-1.21,1.21-2,4.64-2.48,6.83-.48-1.9-1.23-4-2.32-4.76V43a1,1,0,0,0-2,0v6.86c-1.08.81-1.83,2.86-2.32,4.76-.43-2.19-1.27-5.62-2.48-6.83a1,1,0,0,0-1.41,1.41c.79.79,1.65,4.16,2.09,6.7a26,26,0,0,0-.73,3.29c0,.28-.13.76-.21,1.33a1,1,0,0,0-.61,0c-.69.25-1,.53-.71,4.88,0,.42.08,1.27.17,2.18a1.15,1.15,0,0,0-1.12-.47,1,1,0,0,0-.81.68c-.11.3-.29.8,1.1,4.56.12.34.31.82.52,1.35a3.71,3.71,0,0,1-.7-.62,1.14,1.14,0,0,0-1.1-.48l-.59.12-.2.54c-.14.39-.26.7,1.64,4.59.23.47.76,1.54,1.31,2.55a3.71,3.71,0,0,1-1.06-.82,1.18,1.18,0,0,0-1.11-.48l-.58.11-.2.54c-.15.41-.25.68,1.66,4.35a36.29,36.29,0,0,0,2.54,4.32,4,4,0,0,0,2.72,1.41l.36,0A4,4,0,0,0,94,89.45V111a1,1,0,0,0,2,0V89.45a4,4,0,0,0,1.81.44l.36,0a4,4,0,0,0,2.72-1.41,36.26,36.26,0,0,0,2.54-4.32C105.33,80.47,105.23,80.2,105.08,79.79Z"/><path class="cls-1" d="M37.08,98.79l-.21-.56-.57-.1a1.18,1.18,0,0,0-1.11.48,3.71,3.71,0,0,1-1.06.82c.55-1,1.08-2.08,1.31-2.55,1.9-3.88,1.78-4.19,1.64-4.59l-.22-.56-.57-.1a1.14,1.14,0,0,0-1.1.48,3.71,3.71,0,0,1-.7.62c.21-.53.4-1,.52-1.35,1.39-3.76,1.21-4.26,1.1-4.56a1,1,0,0,0-.81-.68,1.15,1.15,0,0,0-1.12.47c.09-.91.14-1.76.17-2.18.26-4.35,0-4.63-.71-4.88a1,1,0,0,0-.61,0c-.08-.57-.16-1-.21-1.33a26,26,0,0,0-.73-3.29c.45-2.53,1.3-5.9,2.09-6.7a1,1,0,0,0-1.41-1.41c-1.21,1.21-2,4.64-2.48,6.83-.48-1.9-1.23-4-2.32-4.76V62a1,1,0,0,0-2,0v6.86c-1.08.81-1.83,2.86-2.32,4.76-.43-2.19-1.27-5.62-2.48-6.83a1,1,0,0,0-1.41,1.41c.79.79,1.65,4.16,2.09,6.7a26,26,0,0,0-.73,3.29c0,.28-.13.76-.21,1.33a1,1,0,0,0-.61,0c-.69.25-1,.53-.71,4.88,0,.42.08,1.27.17,2.18a1.15,1.15,0,0,0-1.12-.47,1,1,0,0,0-.81.68c-.11.3-.29.8,1.1,4.56.12.34.31.82.52,1.35a3.71,3.71,0,0,1-.7-.62,1.14,1.14,0,0,0-1.1-.48l-.59.12-.2.54c-.14.39-.26.7,1.64,4.59.23.47.76,1.54,1.31,2.55a3.71,3.71,0,0,1-1.06-.82,1.18,1.18,0,0,0-1.11-.48l-.58.11-.2.54c-.15.41-.25.68,1.66,4.35a36.29,36.29,0,0,0,2.54,4.32,4,4,0,0,0,2.72,1.41l.36,0a4,4,0,0,0,1.81-.44V111a1,1,0,0,0,2,0v-2.55a4,4,0,0,0,1.81.44l.36,0a4,4,0,0,0,2.72-1.41,36.26,36.26,0,0,0,2.54-4.32C37.33,99.47,37.23,99.2,37.08,98.79Z"/><path class="cls-7" d="M117,12a9.94,9.94,0,0,0-4.29,1A16,16,0,0,0,81,16c0,.09,0,.18,0,.26A8,8,0,1,0,79,32h38a10,10,0,0,0,0-20Z"/><path class="cls-7" d="M50.43,29.08a7.52,7.52,0,0,0-3.25.74,12.11,12.11,0,0,0-24,2.29c0,.07,0,.13,0,.2a6.05,6.05,0,1,0-1.52,11.91H50.43a7.57,7.57,0,1,0,0-15.14Z"/><line class="cls-8" x1="64" x2="64" y1="126" y2="23"/><path class="cls-8" d="M72,29s2-13,5-16"/><path class="cls-8" d="M56,29s-2-13-5-16"/><line class="cls-8" x1="64" x2="64" y1="17" y2="2"/><path class="cls-9" d="M70,33a6,6,0,0,1-12,0c0-3.31,3-16,6-16S70,29.69,70,33Z"/><path class="cls-9" d="M65.19,42.32A6,6,0,0,1,53.37,44.4c-.58-3.26,2.56-20.06,3.13-16.8C57.54,33.51,64.61,39.05,65.19,42.32Z"/><path class="cls-9" d="M62.81,42.32A6,6,0,0,0,74.63,44.4c.58-3.26-2.56-20.06-3.13-16.8C70.46,33.51,63.39,39.05,62.81,42.32Z"/><path class="cls-9" d="M63.74,52.34a6,6,0,1,1-11.28,4.1c-1.13-3.11-2-20.2-.83-17.09C53.68,45,62.6,49.23,63.74,52.34Z"/><path class="cls-9" d="M64.26,52.34a6,6,0,0,0,11.28,4.1c1.13-3.11,2-20.2.83-17.09C74.32,45,65.4,49.23,64.26,52.34Z"/><path class="cls-9" d="M63,71.92a6,6,0,0,1-9.19,7.71C51.63,77.1,43.94,61,46.07,63.52,49.93,68.12,60.82,69.38,63,71.92Z"/><path class="cls-9" d="M65,71.92a6,6,0,0,0,9.19,7.71C76.37,77.1,84.06,61,81.93,63.52,78.07,68.12,67.18,69.38,65,71.92Z"/><path class="cls-9" d="M63,60.92a6,6,0,0,1-9.19,7.71C51.63,66.1,45.94,50,48.07,52.52,51.93,57.12,60.82,58.38,63,60.92Z"/><path class="cls-9" d="M65,60.92a6,6,0,0,0,9.19,7.71C76.37,66.1,82.06,50,79.93,52.52,76.07,57.12,67.18,58.38,65,60.92Z"/><path class="cls-9" d="M63,83.92a6,6,0,0,1-9.19,7.71C51.63,89.1,43.94,74,46.07,76.52,49.93,81.12,60.82,81.38,63,83.92Z"/><path class="cls-9" d="M65,83.92a6,6,0,0,0,9.19,7.71C76.37,89.1,84.06,74,81.93,76.52,78.07,81.12,67.18,81.38,65,83.92Z"/><line class="cls-3" x1="6" x2="16" y1="60" y2="60"/><line class="cls-3" x1="11" x2="11" y1="65" y2="55"/><path class="cls-3" d="M105.12,89.88A3,3,0,0,0,100,92h0a3,3,0,0,0-5.12-2.12A2.86,2.86,0,0,0,95,94l5,6,5-6A2.86,2.86,0,0,0,105.12,89.88Z"/></svg>