<?xml version="1.0" ?><svg viewBox="0 0 64 64" xmlns="http://www.w3.org/2000/svg" xmlns:xlink="http://www.w3.org/1999/xlink"><defs><linearGradient gradientUnits="userSpaceOnUse" id="gradient_ice" x1="-8.439" x2="42.561" y1="18.072" y2="79.072"><stop offset="0" stop-color="#fff200"/><stop offset="1" stop-color="#cd118c"/></linearGradient><linearGradient id="gradient_ice-2" x1="14.139" x2="65.139" xlink:href="#gradient_ice" y1="-0.805" y2="60.195"/></defs><g id="coin-financial-business-finance"><path d="M30,41c0-3.42-5.589-6-13-6S4,37.58,4,41a3.618,3.618,0,0,0,1.091,2.5,3.41,3.41,0,0,0,0,5,3.41,3.41,0,0,0,0,5A3.623,3.623,0,0,0,4,56c0,3.42,5.589,6,13,6s13-2.58,13-6a3.623,3.623,0,0,0-1.091-2.5,3.41,3.41,0,0,0,0-5,3.41,3.41,0,0,0,0-5A3.623,3.623,0,0,0,30,41ZM17,37c6.3,0,11,2.112,11,4a2.4,2.4,0,0,1-1.2,1.689C24.828,44.114,21.071,45,17,45c-.509,0-1.013-.014-1.509-.041-3.474-.189-6.567-1.023-8.3-2.275h0A2.39,2.39,0,0,1,6,41C6,39.112,10.7,37,17,37Zm10.326,7.735A1.851,1.851,0,0,1,28,46a2.4,2.4,0,0,1-1.2,1.689C24.828,49.114,21.071,50,17,50c-.509,0-1.013-.014-1.509-.041-3.474-.189-6.567-1.023-8.3-2.275h0A2.39,2.39,0,0,1,6,46a1.851,1.851,0,0,1,.674-1.265c.054.032.118.06.174.092.137.077.282.15.427.224.2.1.4.2.616.3.158.07.32.136.485.2.223.088.451.173.687.255.175.06.351.118.532.173.246.076.5.147.756.215.188.049.376.1.569.144.269.062.544.118.823.172.2.038.392.078.595.112.3.05.6.091.905.131.2.026.388.055.587.077.343.037.694.063,1.046.088.172.012.34.03.514.039.529.029,1.066.045,1.61.045s1.081-.016,1.61-.045c.175-.009.343-.027.516-.039.351-.025.7-.051,1.043-.088.2-.022.4-.052.594-.078.3-.04.6-.08.9-.129.207-.035.407-.076.61-.115.271-.053.54-.107.8-.168.2-.047.4-.1.594-.15.246-.066.489-.133.725-.206.192-.058.378-.12.562-.183.224-.078.44-.158.653-.242.175-.07.348-.14.515-.214.2-.09.395-.185.585-.281.153-.078.307-.156.451-.237C27.21,44.794,27.273,44.766,27.326,44.735Zm0,5A1.851,1.851,0,0,1,28,51a2.4,2.4,0,0,1-1.2,1.689C24.828,54.114,21.071,55,17,55c-.509,0-1.013-.014-1.509-.041-3.474-.189-6.567-1.023-8.3-2.275h0A2.39,2.39,0,0,1,6,51a1.851,1.851,0,0,1,.674-1.265c.054.032.118.06.174.092.137.077.282.15.427.224.2.1.4.2.616.3.158.07.32.136.485.2.223.088.451.173.687.255.175.06.351.118.532.173.246.076.5.147.756.215.188.049.376.1.569.144.269.062.544.118.823.172.2.038.392.078.595.112.3.05.6.091.905.131.2.026.388.055.587.077.343.037.694.063,1.046.088.172.012.34.03.514.039.529.029,1.066.045,1.61.045s1.081-.016,1.61-.045c.175-.009.343-.027.516-.039.351-.025.7-.051,1.043-.088.2-.022.4-.052.594-.078.3-.04.6-.08.9-.129.207-.035.407-.076.61-.115.271-.053.54-.107.8-.168.2-.047.4-.1.594-.15.246-.066.489-.133.725-.206.192-.058.378-.12.562-.183.224-.078.44-.158.653-.242.175-.07.348-.14.515-.214.2-.09.395-.185.585-.281.153-.078.307-.156.451-.237C27.21,49.794,27.273,49.766,27.326,49.735ZM17,60c-6.3,0-11-2.112-11-4a1.851,1.851,0,0,1,.674-1.265c.054.032.118.06.174.092.137.077.282.15.427.224.2.1.4.2.616.3.158.07.32.136.485.2.223.088.451.173.687.255.175.06.351.118.532.173.246.076.5.147.756.215.188.049.376.1.569.144.269.062.544.118.823.172.2.038.392.078.595.112.3.05.6.091.905.131.2.026.388.055.587.077.343.037.694.063,1.046.088.172.012.34.03.514.039.529.029,1.066.045,1.61.045s1.081-.016,1.61-.045c.175-.009.343-.027.516-.039.351-.025.7-.051,1.043-.088.2-.022.4-.052.594-.078.3-.04.6-.08.9-.129.207-.035.407-.076.61-.115.271-.053.54-.107.8-.168.2-.047.4-.1.594-.15.246-.066.489-.133.725-.206.192-.058.378-.12.562-.183.224-.078.44-.158.653-.242.175-.07.348-.14.515-.214.2-.09.395-.185.585-.281.153-.078.307-.156.451-.237.054-.031.117-.059.17-.09A1.851,1.851,0,0,1,28,56C28,57.888,23.3,60,17,60Z" style="fill:url(#gradient_ice)"/><path d="M60,26a3.623,3.623,0,0,0-1.091-2.5A3.623,3.623,0,0,0,60,21c0-3.42-5.589-6-13-6s-13,2.58-13,6a3.618,3.618,0,0,0,1.091,2.5,3.41,3.41,0,0,0,0,5,3.41,3.41,0,0,0,0,5,3.41,3.41,0,0,0,0,5,3.41,3.41,0,0,0,0,5,3.41,3.41,0,0,0,0,5,3.41,3.41,0,0,0,0,5A3.623,3.623,0,0,0,34,56c0,3.42,5.589,6,13,6s13-2.58,13-6a3.623,3.623,0,0,0-1.091-2.5,3.41,3.41,0,0,0,0-5,3.41,3.41,0,0,0,0-5,3.41,3.41,0,0,0,0-5,3.41,3.41,0,0,0,0-5,3.41,3.41,0,0,0,0-5A3.623,3.623,0,0,0,60,26Zm-2.674,3.735A1.851,1.851,0,0,1,58,31a2.4,2.4,0,0,1-1.2,1.689C54.828,34.114,51.071,35,47,35c-.509,0-1.013-.014-1.509-.041-3.474-.189-6.567-1.023-8.3-2.275h0A2.39,2.39,0,0,1,36,31a1.851,1.851,0,0,1,.674-1.265c.054.032.118.06.174.092.137.077.282.15.427.224.2.1.4.2.616.3.158.07.32.136.485.2.223.088.451.173.687.255.175.06.351.118.532.173.246.076.5.147.756.215.188.049.376.1.569.144.269.062.544.118.823.172.2.038.392.078.595.112.3.05.6.091.905.131.2.026.388.055.587.077.343.037.694.063,1.046.088.172.012.34.03.514.039.529.029,1.066.045,1.61.045s1.081-.016,1.61-.045c.175-.009.343-.027.516-.039.351-.025.7-.051,1.043-.088.2-.022.4-.052.594-.078.3-.04.6-.08.9-.129.207-.035.407-.076.61-.115.271-.053.54-.107.8-.168.2-.047.4-.1.594-.15.246-.066.489-.133.725-.206.192-.058.378-.12.562-.183.224-.078.44-.158.653-.242.175-.07.348-.14.515-.214.2-.09.4-.185.585-.281.153-.078.307-.156.451-.237C57.21,29.794,57.273,29.766,57.326,29.735Zm0,5A1.851,1.851,0,0,1,58,36a2.4,2.4,0,0,1-1.2,1.689C54.828,39.114,51.071,40,47,40c-.509,0-1.013-.014-1.509-.041-3.474-.189-6.567-1.023-8.3-2.275h0A2.39,2.39,0,0,1,36,36a1.851,1.851,0,0,1,.674-1.265c.054.032.118.06.174.092.137.077.282.15.427.224.2.1.4.2.616.3.158.07.32.136.485.2.223.088.451.173.687.255.175.06.351.118.532.173.246.076.5.147.756.215.188.049.376.1.569.144.269.062.544.118.823.172.2.038.392.078.595.112.3.05.6.091.905.131.2.026.388.055.587.077.343.037.694.063,1.046.088.172.012.34.03.514.039.529.029,1.066.045,1.61.045s1.081-.016,1.61-.045c.175-.009.343-.027.516-.039.351-.025.7-.051,1.043-.088.2-.022.4-.052.594-.078.3-.04.6-.08.9-.129.207-.035.407-.076.61-.115.271-.053.54-.107.8-.168.2-.047.4-.1.594-.15.246-.066.489-.133.725-.206.192-.058.378-.12.562-.183.224-.078.44-.158.653-.242.175-.07.348-.14.515-.214.2-.09.4-.185.585-.281.153-.078.307-.156.451-.237C57.21,34.794,57.273,34.766,57.326,34.735Zm0,5A1.851,1.851,0,0,1,58,41a2.4,2.4,0,0,1-1.2,1.689C54.828,44.114,51.071,45,47,45c-.509,0-1.013-.014-1.509-.041-3.474-.189-6.567-1.023-8.3-2.275h0A2.39,2.39,0,0,1,36,41a1.851,1.851,0,0,1,.674-1.265c.054.032.118.06.174.092.137.077.282.15.427.224.2.1.4.2.616.3.158.07.32.136.485.2.223.088.451.173.687.255.175.06.351.118.532.173.246.076.5.147.756.215.188.049.376.1.569.144.269.062.544.118.823.172.2.038.392.078.595.112.3.05.6.091.905.131.2.026.388.055.587.077.343.037.694.063,1.046.088.172.012.34.03.514.039.529.029,1.066.045,1.61.045s1.081-.016,1.61-.045c.175-.009.343-.027.516-.039.351-.025.7-.051,1.043-.088.2-.022.4-.052.594-.078.3-.04.6-.08.9-.129.207-.035.407-.076.61-.115.271-.053.54-.107.8-.168.2-.047.4-.1.594-.15.246-.066.489-.133.725-.206.192-.058.378-.12.562-.183.224-.078.44-.158.653-.242.175-.07.348-.14.515-.214.2-.09.4-.185.585-.281.153-.078.307-.156.451-.237C57.21,39.794,57.273,39.766,57.326,39.735Zm0,5A1.851,1.851,0,0,1,58,46a2.4,2.4,0,0,1-1.2,1.689C54.828,49.114,51.071,50,47,50c-.509,0-1.013-.014-1.509-.041-3.474-.189-6.567-1.023-8.3-2.275h0A2.39,2.39,0,0,1,36,46a1.851,1.851,0,0,1,.674-1.265c.054.032.118.06.174.092.137.077.282.15.427.224.2.1.4.2.616.3.158.07.32.136.485.2.223.088.451.173.687.255.175.06.351.118.532.173.246.076.5.147.756.215.188.049.376.1.569.144.269.062.544.118.823.172.2.038.392.078.595.112.3.05.6.091.905.131.2.026.388.055.587.077.343.037.694.063,1.046.088.172.012.34.03.514.039.529.029,1.066.045,1.61.045s1.081-.016,1.61-.045c.175-.009.343-.027.516-.039.351-.025.7-.051,1.043-.088.2-.022.4-.052.594-.078.3-.04.6-.08.9-.129.207-.035.407-.076.61-.115.271-.053.54-.107.8-.168.2-.047.4-.1.594-.15.246-.066.489-.133.725-.206.192-.058.378-.12.562-.183.224-.078.44-.158.653-.242.175-.07.348-.14.515-.214.2-.09.4-.185.585-.281.153-.078.307-.156.451-.237C57.21,44.794,57.273,44.766,57.326,44.735Zm0,5A1.851,1.851,0,0,1,58,51a2.4,2.4,0,0,1-1.2,1.689C54.828,54.114,51.071,55,47,55c-.509,0-1.013-.014-1.509-.041-3.474-.189-6.567-1.023-8.3-2.275h0A2.39,2.39,0,0,1,36,51a1.851,1.851,0,0,1,.674-1.265c.054.032.118.06.174.092.137.077.282.15.427.224.2.1.4.2.616.3.158.07.32.136.485.2.223.088.451.173.687.255.175.06.351.118.532.173.246.076.5.147.756.215.188.049.376.1.569.144.269.062.544.118.823.172.2.038.392.078.595.112.3.05.6.091.905.131.2.026.388.055.587.077.343.037.694.063,1.046.088.172.012.34.03.514.039.529.029,1.066.045,1.61.045s1.081-.016,1.61-.045c.175-.009.343-.027.516-.039.351-.025.7-.051,1.043-.088.2-.022.4-.052.594-.078.3-.04.6-.08.9-.129.207-.035.407-.076.61-.115.271-.053.54-.107.8-.168.2-.047.4-.1.594-.15.246-.066.489-.133.725-.206.192-.058.378-.12.562-.183.224-.078.44-.158.653-.242.175-.07.348-.14.515-.214.2-.09.4-.185.585-.281.153-.078.307-.156.451-.237C57.21,49.794,57.273,49.766,57.326,49.735Zm-.521-22.046C54.828,29.114,51.071,30,47,30c-.509,0-1.013-.014-1.509-.041-3.474-.189-6.567-1.023-8.3-2.275h0A2.39,2.39,0,0,1,36,26a1.851,1.851,0,0,1,.674-1.265c.054.032.118.06.174.092.137.077.282.15.427.224.2.1.4.2.616.3.158.07.32.136.485.2.223.088.451.173.687.255.175.06.351.118.532.173.246.076.5.147.756.215.188.049.376.1.569.144.269.062.544.118.823.172.2.038.392.078.595.112.3.05.6.091.905.131.2.026.388.055.587.077.343.037.694.063,1.046.088.172.012.34.03.514.039.529.029,1.066.045,1.61.045s1.081-.016,1.61-.045c.175-.009.343-.027.516-.039.351-.025.7-.051,1.043-.088.2-.022.4-.052.594-.078.3-.04.6-.08.9-.129.207-.035.407-.076.61-.115.271-.053.54-.107.8-.168.2-.047.4-.1.594-.15.246-.066.489-.133.725-.206.192-.058.378-.12.562-.183.224-.078.44-.158.653-.242.175-.07.348-.14.515-.214.2-.09.4-.185.585-.281.153-.078.307-.156.451-.237.054-.031.117-.059.17-.09A1.851,1.851,0,0,1,58,26,2.4,2.4,0,0,1,56.805,27.689ZM47,17c6.3,0,11,2.112,11,4a2.4,2.4,0,0,1-1.2,1.689C54.828,24.114,51.071,25,47,25c-.509,0-1.013-.014-1.509-.041-3.474-.189-6.567-1.023-8.3-2.275h0A2.39,2.39,0,0,1,36,21C36,19.112,40.7,17,47,17Zm0,43c-6.3,0-11-2.112-11-4a1.851,1.851,0,0,1,.674-1.265c.054.032.118.06.174.092.137.077.282.15.427.224.2.1.4.2.616.3.158.07.32.136.485.2.223.088.451.173.687.255.175.06.351.118.532.173.246.076.5.147.756.215.188.049.376.1.569.144.269.062.544.118.823.172.2.038.392.078.595.112.3.05.6.091.905.131.2.026.388.055.587.077.343.037.694.063,1.046.088.172.012.34.03.514.039.529.029,1.066.045,1.61.045s1.081-.016,1.61-.045c.175-.009.343-.027.516-.039.351-.025.7-.051,1.043-.088.2-.022.4-.052.594-.078.3-.04.6-.08.9-.129.207-.035.407-.076.61-.115.271-.053.54-.107.8-.168.2-.047.4-.1.594-.15.246-.066.489-.133.725-.206.192-.058.378-.12.562-.183.224-.078.44-.158.653-.242.175-.07.348-.14.515-.214.2-.09.4-.185.585-.281.153-.078.307-.156.451-.237.054-.031.117-.059.17-.09A1.851,1.851,0,0,1,58,56C58,57.888,53.3,60,47,60Z" style="fill:url(#gradient_ice-2)"/></g></svg>